<svg width="51" height="30" viewBox="0 0 51 30" fill="none" xmlns="http://www.w3.org/2000/svg">
<path d="M9.34349 29.5925L2.60587 29.5925C1.16666 29.5925 2.09947e-05 28.4258 2.10119e-05 26.9866L2.10756e-05 21.6444C2.10839e-05 20.9533 0.274544 20.2905 0.763207 19.8018L19.0096 1.55541C19.4983 1.06675 20.1611 0.792217 20.8522 0.792217L22.8395 0.792217C24.2787 0.792217 25.4453 1.95886 25.4453 3.39807L25.4453 3.47371C25.4453 4.16484 25.1708 4.82764 24.6821 5.3163L19.6632 10.3352C19.1745 10.8239 18.9 11.4867 18.9 12.1778L18.9 20.036C18.9 20.7271 18.6254 21.3899 18.1367 21.8786L11.1861 28.8292C10.6974 29.3179 10.0346 29.5925 9.34349 29.5925Z" fill="url(#paint0_linear_125_450)"/>
<path d="M34.7887 29.5925L28.0511 29.5925C26.6119 29.5925 25.4453 28.4258 25.4453 26.9866L25.4453 21.6444C25.4453 20.9533 25.7198 20.2905 26.2085 19.8018L44.4548 1.55541C44.9435 1.06675 45.6063 0.792217 46.2975 0.792217L48.2847 0.792217C49.7239 0.792217 50.8906 1.95886 50.8906 3.39807L50.8906 3.47371C50.8906 4.16484 50.616 4.82764 50.1274 5.3163L45.1085 10.3352C44.6198 10.8239 44.3452 11.4867 44.3452 12.1778L44.3452 20.036C44.3452 20.7271 44.0707 21.3899 43.582 21.8786L36.6314 28.8292C36.1427 29.3179 35.4799 29.5925 34.7887 29.5925Z" fill="url(#paint1_linear_125_450)"/>
<defs>
<linearGradient id="paint0_linear_125_450" x1="25.4453" y1="29.5925" x2="25.019" y2="0.426544" gradientUnits="userSpaceOnUse">
<stop stop-color="#0F6DFF"/>
<stop offset="1" stop-color="#005CEA"/>
</linearGradient>
<linearGradient id="paint1_linear_125_450" x1="50.8906" y1="29.5925" x2="50.4643" y2="0.426544" gradientUnits="userSpaceOnUse">
<stop stop-color="#0F6DFF"/>
<stop offset="1" stop-color="#005CEA"/>
</linearGradient>
</defs>
</svg>
