<svg width="41" height="41" viewBox="0 0 41 41" fill="none" xmlns="http://www.w3.org/2000/svg">
<rect x="0.530273" y="0.308105" width="40" height="40" rx="12" fill="url(#paint0_linear_334_342)"/>
<path d="M27.1138 18.8584L14.5806 30.3365C14.3408 30.5562 13.9718 30.2907 14.1038 29.9935L17.6902 21.9216C17.7784 21.7232 17.6332 21.4998 17.4161 21.4998H12.088C11.8489 21.4998 11.7059 21.2339 11.8376 21.0344L19.2864 9.75691C19.4715 9.47666 19.785 9.30804 20.1208 9.30804H28.8555C29.1154 9.30804 29.2523 9.61605 29.0782 9.80902L21.835 17.8362C21.6608 18.0292 21.7978 18.3372 22.0577 18.3372H26.9112C27.1848 18.3372 27.3156 18.6736 27.1138 18.8584Z" stroke="white"/>
<defs>
<linearGradient id="paint0_linear_334_342" x1="0.530273" y1="0.308105" x2="24.3652" y2="48.3312" gradientUnits="userSpaceOnUse">
<stop stop-color="#222738"/>
<stop offset="1" stop-color="#101420"/>
</linearGradient>
</defs>
</svg>
