<svg width="40" height="41" viewBox="0 0 40 41" fill="none" xmlns="http://www.w3.org/2000/svg">
<rect y="0.663574" width="40" height="40" rx="12" fill="url(#paint0_linear_125_169)"/>
<path d="M26.5835 19.214L14.0503 30.6921C13.8105 30.9117 13.4415 30.6462 13.5736 30.349L17.16 22.2771C17.2481 22.0787 17.1029 21.8553 16.8858 21.8553H11.5577C11.3187 21.8553 11.1756 21.5894 11.3074 21.39L18.7562 10.1124C18.9413 9.83219 19.2547 9.66357 19.5906 9.66357H28.3252C28.5851 9.66357 28.7221 9.97158 28.5479 10.1646L21.3047 18.1918C21.1306 18.3847 21.2675 18.6927 21.5274 18.6927H26.3809C26.6546 18.6927 26.7853 19.0291 26.5835 19.214Z" stroke="white"/>
<defs>
<linearGradient id="paint0_linear_125_169" x1="0" y1="0.663574" x2="40.5098" y2="1.18669" gradientUnits="userSpaceOnUse">
<stop stop-color="#0F6DFF"/>
<stop offset="1" stop-color="#005CEA"/>
</linearGradient>
</defs>
</svg>
