<svg width="41" height="41" viewBox="0 0 41 41" fill="none" xmlns="http://www.w3.org/2000/svg">
<rect x="0.530273" y="0.308105" width="40" height="40" rx="12" fill="url(#paint0_linear_334_358)"/>
<path d="M31.5303 19.3024V20.3144C31.5289 22.6865 30.7608 24.9945 29.3405 26.8944C27.9203 28.7943 25.9239 30.1841 23.6492 30.8567C21.3744 31.5292 18.9433 31.4485 16.7182 30.6264C14.4931 29.8044 12.5934 28.2851 11.3023 26.2952C10.0113 24.3052 9.39804 21.9513 9.55412 19.5843C9.71019 17.2174 10.6272 14.9644 12.1684 13.1612C13.7096 11.358 15.7923 10.1013 18.1061 9.57856C20.4198 9.0558 22.8406 9.29497 25.0073 10.2604" stroke="white" stroke-linecap="round" stroke-linejoin="round"/>
<path d="M31.5302 11.5144L20.5302 22.5254L17.2302 19.2254" stroke="white" stroke-linecap="round" stroke-linejoin="round"/>
<defs>
<linearGradient id="paint0_linear_334_358" x1="0.530273" y1="0.308105" x2="24.3652" y2="48.3312" gradientUnits="userSpaceOnUse">
<stop stop-color="#222738"/>
<stop offset="1" stop-color="#101420"/>
</linearGradient>
</defs>
</svg>
