<svg width="41" height="41" viewBox="0 0 41 41" fill="none" xmlns="http://www.w3.org/2000/svg">
<rect x="0.530273" y="0.308105" width="40" height="40" rx="12" fill="url(#paint0_linear_334_367)"/>
<path d="M30.6291 20.0205C30.6291 22.6744 29.6452 25.0973 28.0215 26.9461C26.0964 29.1381 23.2745 30.5205 20.1291 30.5205C14.3301 30.5205 9.62912 25.8195 9.62912 20.0205C9.62912 16.9033 10.9868 14.1039 13.1447 12.1802C15.0008 10.5255 17.447 9.52051 20.1291 9.52051C25.9281 9.52051 30.6291 14.2215 30.6291 20.0205Z" stroke="white"/>
<path d="M16.5392 21.413V20.5485H20.9917C21.0653 20.5485 21.1542 20.5442 21.2582 20.5355C21.3622 20.5268 21.4683 20.5117 21.5767 20.49C22.0447 20.386 22.3935 20.1563 22.6232 19.801C22.8572 19.4413 22.9742 19.034 22.9742 18.579C22.9742 18.2843 22.9243 18.0005 22.8247 17.7275C22.725 17.4545 22.5712 17.2205 22.3632 17.0255C22.1552 16.8305 21.893 16.6983 21.5767 16.629C21.4727 16.603 21.3665 16.5878 21.2582 16.5835C21.1498 16.5792 21.061 16.577 20.9917 16.577H18.2747V15.6605H21.0177C21.0913 15.6605 21.1845 15.6648 21.2972 15.6735C21.4142 15.6778 21.542 15.6908 21.6807 15.7125C22.166 15.7905 22.5777 15.9617 22.9157 16.226C23.258 16.486 23.5158 16.8175 23.6892 17.2205C23.8668 17.6235 23.9557 18.0698 23.9557 18.5595C23.9557 19.2875 23.7607 19.905 23.3707 20.412C22.985 20.919 22.4217 21.2353 21.6807 21.361C21.542 21.3783 21.4142 21.3913 21.2972 21.4C21.1845 21.4087 21.0913 21.413 21.0177 21.413H16.5392ZM16.5392 23.4345V22.6155H21.5637V23.4345H16.5392ZM17.5337 25.0205V15.6605H18.4892V25.0205H17.5337Z" fill="white"/>
<line x1="10.0687" y1="9.1394" x2="31.699" y2="30.7697" stroke="white" stroke-linecap="round"/>
<defs>
<linearGradient id="paint0_linear_334_367" x1="0.530273" y1="0.308105" x2="24.3652" y2="48.3312" gradientUnits="userSpaceOnUse">
<stop stop-color="#222738"/>
<stop offset="1" stop-color="#101420"/>
</linearGradient>
</defs>
</svg>
