<svg width="40" height="41" viewBox="0 0 40 41" fill="none" xmlns="http://www.w3.org/2000/svg">
<rect y="0.663574" width="40" height="40" rx="12" fill="url(#paint0_linear_125_194)"/>
<path d="M30.0989 20.376C30.0989 23.0299 29.1149 25.4527 27.4912 27.3016C25.5661 29.4936 22.7442 30.876 19.5989 30.876C13.7999 30.876 9.09888 26.175 9.09888 20.376C9.09888 17.2588 10.4566 14.4594 12.6145 12.5356C14.4706 10.8809 16.9168 9.87598 19.5989 9.87598C25.3979 9.87598 30.0989 14.577 30.0989 20.376Z" stroke="white"/>
<path d="M16.0089 21.7685V20.904H20.4614C20.535 20.904 20.6239 20.8996 20.7279 20.891C20.8319 20.8823 20.938 20.8671 21.0464 20.8455C21.5144 20.7415 21.8632 20.5118 22.0929 20.1565C22.3269 19.7968 22.4439 19.3895 22.4439 18.9345C22.4439 18.6398 22.394 18.356 22.2944 18.083C22.1947 17.81 22.0409 17.576 21.8329 17.381C21.6249 17.186 21.3627 17.0538 21.0464 16.9845C20.9424 16.9585 20.8362 16.9433 20.7279 16.939C20.6195 16.9346 20.5307 16.9325 20.4614 16.9325H17.7444V16.016H20.4874C20.561 16.016 20.6542 16.0203 20.7669 16.029C20.8839 16.0333 21.0117 16.0463 21.1504 16.068C21.6357 16.146 22.0474 16.3171 22.3854 16.5815C22.7277 16.8415 22.9855 17.173 23.1589 17.576C23.3365 17.979 23.4254 18.4253 23.4254 18.915C23.4254 19.643 23.2304 20.2605 22.8404 20.7675C22.4547 21.2745 21.8914 21.5908 21.1504 21.7165C21.0117 21.7338 20.8839 21.7468 20.7669 21.7555C20.6542 21.7641 20.561 21.7685 20.4874 21.7685H16.0089ZM16.0089 23.79V22.971H21.0334V23.79H16.0089ZM17.0034 25.376V16.016H17.9589V25.376H17.0034Z" fill="white"/>
<line x1="9.53841" y1="9.49487" x2="31.1687" y2="31.1251" stroke="white" stroke-linecap="round"/>
<defs>
<linearGradient id="paint0_linear_125_194" x1="0" y1="0.663574" x2="40.5098" y2="1.18669" gradientUnits="userSpaceOnUse">
<stop stop-color="#0F6DFF"/>
<stop offset="1" stop-color="#005CEA"/>
</linearGradient>
</defs>
</svg>
