<svg width="40" height="41" viewBox="0 0 40 41" fill="none" xmlns="http://www.w3.org/2000/svg">
<rect y="0.663574" width="40" height="40" rx="12" fill="url(#paint0_linear_125_202)"/>
<path d="M29.3036 12.8433C28.766 12.3108 28.1278 11.8883 27.4253 11.6001C26.7228 11.3119 25.9699 11.1636 25.2095 11.1636C24.4491 11.1636 23.6961 11.3119 22.9936 11.6001C22.2912 11.8883 21.6529 12.3108 21.1153 12.8433L19.9997 13.948L18.8841 12.8433C17.7983 11.7682 16.3256 11.1641 14.79 11.1641C13.2544 11.1641 11.7817 11.7682 10.6958 12.8433C9.61001 13.9185 9 15.3767 9 16.8972C9 18.4177 9.61001 19.876 10.6958 20.9511L11.8115 22.0558L19.9997 30.1636L28.188 22.0558L29.3036 20.9511C29.8414 20.4188 30.268 19.7869 30.5591 19.0913C30.8502 18.3957 31 17.6501 31 16.8972C31 16.1443 30.8502 15.3987 30.5591 14.7032C30.268 14.0076 29.8414 13.3756 29.3036 12.8433Z" stroke="white" stroke-linecap="round" stroke-linejoin="round"/>
<defs>
<linearGradient id="paint0_linear_125_202" x1="0" y1="0.663574" x2="40.5098" y2="1.18669" gradientUnits="userSpaceOnUse">
<stop stop-color="#0F6DFF"/>
<stop offset="1" stop-color="#005CEA"/>
</linearGradient>
</defs>
</svg>
