<svg width="41" height="41" viewBox="0 0 41 41" fill="none" xmlns="http://www.w3.org/2000/svg">
<rect x="0.530273" y="0.308105" width="40" height="40" rx="12" fill="url(#paint0_linear_334_375)"/>
<path d="M29.8339 12.4879C29.2963 11.9554 28.6581 11.5329 27.9556 11.2447C27.2531 10.9565 26.5001 10.8082 25.7397 10.8082C24.9793 10.8082 24.2264 10.9565 23.5239 11.2447C22.8214 11.5329 22.1832 11.9554 21.6456 12.4879L20.53 13.5926L19.4144 12.4879C18.3285 11.4127 16.8558 10.8087 15.3202 10.8087C13.7846 10.8087 12.3119 11.4127 11.2261 12.4879C10.1403 13.5631 9.53027 15.0213 9.53027 16.5418C9.53027 18.0623 10.1403 19.5205 11.2261 20.5957L12.3417 21.7004L20.53 29.8082L28.7182 21.7004L29.8339 20.5957C30.3717 20.0634 30.7983 19.4314 31.0894 18.7359C31.3805 18.0403 31.5303 17.2947 31.5303 16.5418C31.5303 15.7889 31.3805 15.0433 31.0894 14.3477C30.7983 13.6522 30.3717 13.0202 29.8339 12.4879Z" stroke="white" stroke-linecap="round" stroke-linejoin="round"/>
<defs>
<linearGradient id="paint0_linear_334_375" x1="0.530273" y1="0.308105" x2="24.3652" y2="48.3312" gradientUnits="userSpaceOnUse">
<stop stop-color="#222738"/>
<stop offset="1" stop-color="#101420"/>
</linearGradient>
</defs>
</svg>
