<svg width="41" height="41" viewBox="0 0 41 41" fill="none" xmlns="http://www.w3.org/2000/svg">
<rect x="0.530273" y="0.308105" width="40" height="40" rx="12" fill="url(#paint0_linear_334_381)"/>
<path d="M15.119 19.208L19.5899 9.30811C20.4792 9.30811 21.3321 9.65578 21.961 10.2746C22.5898 10.8935 22.9431 11.7329 22.9431 12.6081V17.0081H29.2695C29.5935 17.0044 29.9145 17.0702 30.2101 17.2008C30.5058 17.3314 30.7691 17.5237 30.9817 17.7643C31.1943 18.005 31.3513 18.2883 31.4416 18.5945C31.532 18.9008 31.5536 19.2227 31.505 19.538L29.9625 29.438C29.8816 29.9626 29.6109 30.4407 29.2001 30.7844C28.7893 31.128 28.2661 31.314 27.727 31.308H15.119M15.119 19.208V31.308M15.119 19.208H11.7657C11.1729 19.208 10.6043 19.4398 10.185 19.8524C9.7658 20.265 9.53027 20.8246 9.53027 21.408V29.108C9.53027 29.6915 9.7658 30.251 10.185 30.6636C10.6043 31.0762 11.1729 31.308 11.7657 31.308H15.119" stroke="white" stroke-linecap="round" stroke-linejoin="round"/>
<defs>
<linearGradient id="paint0_linear_334_381" x1="0.530273" y1="0.308105" x2="24.3652" y2="48.3312" gradientUnits="userSpaceOnUse">
<stop stop-color="#222738"/>
<stop offset="1" stop-color="#101420"/>
</linearGradient>
</defs>
</svg>
