<svg width="40" height="41" viewBox="0 0 40 41" fill="none" xmlns="http://www.w3.org/2000/svg">
<rect y="0.663574" width="40" height="40" rx="12" fill="url(#paint0_linear_125_208)"/>
<path d="M14.5887 19.5635L19.0596 9.66357C19.9489 9.66357 20.8018 10.0112 21.4307 10.6301C22.0595 11.249 22.4128 12.0883 22.4128 12.9636V17.3635H28.7392C29.0633 17.3599 29.3842 17.4257 29.6799 17.5563C29.9755 17.6868 30.2388 17.8791 30.4514 18.1198C30.6641 18.3604 30.821 18.6437 30.9114 18.95C31.0017 19.2563 31.0233 19.5782 30.9747 19.8935L29.4322 29.7934C29.3514 30.318 29.0806 30.7962 28.6698 31.1398C28.259 31.4835 27.7359 31.6694 27.1967 31.6634H14.5887M14.5887 19.5635V31.6634M14.5887 19.5635H11.2355C10.6426 19.5635 10.074 19.7953 9.65475 20.2079C9.23552 20.6204 9 21.18 9 21.7635V29.4634C9 30.0469 9.23552 30.6065 9.65475 31.0191C10.074 31.4317 10.6426 31.6634 11.2355 31.6634H14.5887" stroke="white" stroke-width="1.5" stroke-linecap="round" stroke-linejoin="round"/>
<defs>
<linearGradient id="paint0_linear_125_208" x1="0" y1="0.663574" x2="40.5098" y2="1.18669" gradientUnits="userSpaceOnUse">
<stop stop-color="#0F6DFF"/>
<stop offset="1" stop-color="#005CEA"/>
</linearGradient>
</defs>
</svg>
