<svg width="20" height="24" viewBox="0 0 20 24" fill="none" xmlns="http://www.w3.org/2000/svg">
<path d="M19 9.81409C19 16.8141 10 22.8141 10 22.8141C10 22.8141 1 16.8141 1 9.81409C1 7.42714 1.94821 5.13795 3.63604 3.45013C5.32387 1.7623 7.61305 0.814087 10 0.814087C12.3869 0.814087 14.6761 1.7623 16.364 3.45013C18.0518 5.13795 19 7.42714 19 9.81409Z" stroke="url(#paint0_linear_125_817)" stroke-width="1.5" stroke-linecap="round" stroke-linejoin="round"/>
<path d="M10 12.8141C11.6569 12.8141 13 11.4709 13 9.81409C13 8.15723 11.6569 6.81409 10 6.81409C8.34315 6.81409 7 8.15723 7 9.81409C7 11.4709 8.34315 12.8141 10 12.8141Z" stroke="url(#paint1_linear_125_817)" stroke-width="1.5" stroke-linecap="round" stroke-linejoin="round"/>
<defs>
<linearGradient id="paint0_linear_125_817" x1="1" y1="0.814087" x2="19.2304" y2="1.0067" gradientUnits="userSpaceOnUse">
<stop stop-color="#0F6DFF"/>
<stop offset="1" stop-color="#005CEA"/>
</linearGradient>
<linearGradient id="paint1_linear_125_817" x1="7" y1="6.81409" x2="13.0765" y2="6.89255" gradientUnits="userSpaceOnUse">
<stop stop-color="#0F6DFF"/>
<stop offset="1" stop-color="#005CEA"/>
</linearGradient>
</defs>
</svg>
