<svg width="776" height="551" viewBox="0 0 776 551" fill="none" xmlns="http://www.w3.org/2000/svg">
<path d="M215.658 133.372C209.21 153.5 208.751 174.976 205.568 195.858C202.384 216.741 195.72 238.379 179.991 252.516C170.871 260.611 159.27 265.818 150.313 274.101C131.13 291.719 126.867 321.828 135.608 346.38C144.35 370.932 164.099 390.223 186.277 403.875C202.203 414.163 220.222 420.771 239.023 423.22C257.909 425.216 277.551 421.412 292.983 410.593C304.288 402.715 313.164 391.302 325.656 385.474C341.844 377.92 361.081 381.266 378.052 386.958C395.022 392.651 411.588 400.448 429.314 402.067C441.718 403.09 454.176 400.902 465.49 395.714C476.803 390.526 486.59 382.512 493.909 372.445C501.227 362.378 505.831 350.597 507.276 338.235C508.721 325.873 506.959 313.347 502.16 301.863C495.712 286.457 484.191 273.777 475.773 259.342C467.356 244.908 462.149 226.67 469.541 211.669C477.878 194.725 498.922 188.115 510.416 173.141C521.909 158.167 521.828 136.529 512.385 120.422C502.942 104.315 485.405 93.9815 466.816 91.1755C448.227 88.3696 429.341 92.5785 412.478 100.565C400.283 106.338 388.628 114.217 375.246 115.808C363.752 117.184 352.313 113.758 341.251 110.412C326.223 105.826 295.735 77.8743 260.526 87.3444C238.187 93.28 223.105 114.729 215.658 133.372Z" fill="url(#paint0_linear_352_7255)"/>
<path d="M445.779 2.94356C416.906 10.9494 390.823 27.0519 363.437 39.4704C336.051 51.889 305.246 60.8217 276.79 53.2209C260.23 48.8275 245.625 39.0957 229.1 34.7967C193.885 25.8527 154.66 44.1702 131.685 73.4675C108.71 102.765 99.9642 141.077 99.9116 177.81C99.2252 204.513 104.499 230.84 115.346 254.865C126.406 279.013 145.842 298.119 170.143 308.732C187.849 315.854 208.119 317.566 224.248 327.749C245.23 341.037 255.33 366.215 261.003 390.611C266.675 415.007 269.238 440.694 280.563 462.866C288.425 478.32 300.193 491.352 314.733 500.701C329.273 510.051 346.092 515.402 363.566 516.239C381.04 517.076 398.578 513.37 414.488 505.479C430.397 497.588 444.139 485.779 454.387 471.192C468.118 451.653 474.85 428.243 485.961 407.132C497.071 386.021 515.151 365.757 538.426 362.772C564.873 359.491 588.269 379.097 614.687 381.097C641.105 383.096 666.906 366.175 679.321 342.567C691.737 318.959 690.904 289.975 680.912 266.206C669.976 242.465 652.177 222.725 629.754 209.469C613.892 199.592 595.914 191.972 584.117 177.427C574.057 164.962 569.765 148.816 565.712 133.138C560.201 111.886 571.243 54.3073 534.092 20.1839C510.373 -1.59044 473.569 -2.67608 445.779 2.94356Z" fill="url(#paint1_linear_352_7255)"/>
<path d="M482.071 124.109C498.42 110.703 502.866 85.3308 493.45 66.3996C484.033 47.4683 462.323 35.8611 441.135 36.9727C430.531 37.738 420.259 41.009 411.164 46.5169C402.07 52.0247 394.412 59.6122 388.821 68.6556C384.374 75.7835 381.105 83.696 375.415 89.8756C363.645 102.693 344.288 105.047 326.927 103.575C309.565 102.104 292.236 97.5921 275.005 99.8808C257.774 102.17 239.889 113.973 238.287 131.302C236.913 146.244 248.39 160.01 262.09 166.124C275.789 172.238 291.32 172.434 306.328 172.336C321.336 172.238 336.801 172.107 350.73 177.731C362.598 182.537 372.44 191.137 383.426 197.611C394.412 204.084 408.112 208.368 419.948 203.529C429.136 199.768 436.296 187.54 432.471 177.764C428.384 167.301 413.932 167.955 414.946 154.32C415.959 140.686 428.318 139.901 438.716 138.495C453.985 136.37 469.876 134.081 482.071 124.109Z" fill="#9FC3F7"/>
<defs>
<linearGradient id="paint0_linear_352_7255" x1="131.271" y1="85.3997" x2="315.806" y2="511.785" gradientUnits="userSpaceOnUse">
<stop stop-color="#222738"/>
<stop offset="1" stop-color="#101420"/>
</linearGradient>
<linearGradient id="paint1_linear_352_7255" x1="0.81543" y1="216.836" x2="348.822" y2="-157.153" gradientUnits="userSpaceOnUse">
<stop stop-color="#0F6DFF"/>
<stop offset="1" stop-color="#005CEA"/>
</linearGradient>
</defs>
</svg>
