<svg width="375" height="675" viewBox="0 0 375 675" fill="none" xmlns="http://www.w3.org/2000/svg">
<g clip-path="url(#clip0_427_285)">
<rect width="375" height="675" fill="#F9FAFF"/>
<path d="M557.61 682.572C624.815 570.178 577.887 455.176 546.023 411.724C522.128 368.787 379.459 249.506 272.279 184.328C165.098 119.151 28.9506 114.807 -76.7813 249.506C-182.513 384.206 -118.784 502.973 -111.542 662.295C-104.301 821.617 20.2603 923.003 217.24 946.177C414.22 969.351 473.604 823.065 557.61 682.572Z" stroke="#EAEEF7"/>
<path d="M186.885 192.653C35.6118 206.267 -29.3034 327.657 -42.8519 386.651C-78.1961 487.053 -21.6454 515.983 -7.5077 740.613C6.62997 965.243 236.367 1126.91 494.38 1011.19C752.392 895.472 671.1 531.299 593.343 459.826C515.586 388.353 375.977 175.635 186.885 192.653Z" stroke="#EAEEF7"/>
<path d="M-91.6027 321.04C-210.601 475.902 -183.297 629.404 -154.77 686.797C-12.1346 950.672 242.571 928.259 432.072 846.753C583.673 781.548 610.706 648.422 605.272 590.009C597.122 226.29 283.324 148.859 219.138 147.84C154.953 146.821 57.1453 127.463 -91.6027 321.04Z" stroke="#EAEEF7"/>
<path d="M-115.966 766.011C-296.026 895.241 -254.711 1023.34 -211.546 1071.23C4.27911 1291.43 389.682 1272.73 676.422 1204.71C905.814 1150.3 946.718 1039.21 938.496 990.462C926.163 686.943 451.347 622.328 354.225 621.478C257.104 620.628 109.109 604.474 -115.966 766.011Z" fill="url(#paint0_linear_427_285)"/>
<path d="M343.472 632.924C364.052 636.025 414.19 638.151 436.687 638.827L436.686 1247.78L-172.064 1247.78L-172.063 644.2C-138.235 642.791 -121.673 645.61 -71.282 649.838C-20.8913 654.067 27.3851 638.562 80.5949 630.81C133.805 623.057 168.691 659.705 213.091 647.372C257.491 635.038 317.749 629.048 343.472 632.924Z" fill="#DEE3EE"/>
<path d="M190.471 1390.05C392.599 1403.86 515.847 1294.45 552.204 1238.01C713.271 968.822 557.954 765.561 384.225 650.772C245.242 558.942 111.435 610.855 61.904 648.29C-260.144 859.625 -163.052 1169.08 -129.895 1224.05C-96.7377 1279.02 -62.1891 1372.79 190.471 1390.05Z" stroke="#EBF2FF"/>
<path d="M530.435 1210.35C637.442 1038.31 598.62 878.144 565.834 819.563C403.644 551.048 151.278 592.876 -31.5886 692.465C-177.882 772.137 -194.798 914.661 -184.969 975.964C-149.385 1359.51 169.458 1418.92 233.558 1415.42C297.657 1411.92 396.677 1425.39 530.435 1210.35Z" stroke="#EBF2FF"/>
<path d="M97.6771 1294.9C288.676 1362.47 436.775 1290.17 486.949 1245.57C714.377 1029.51 619.337 792.008 482.807 634.789C373.582 509.014 230.75 523.095 172.987 545.858C-193.977 662.966 -183.537 987.128 -166.356 1048.98C-149.175 1110.83 -141.071 1210.44 97.6771 1294.9Z" stroke="#EBF2FF"/>
<path d="M-66.915 -389.554C-166.217 -260.325 -143.432 -132.229 -119.627 -84.3352C-0.599915 135.865 211.949 117.161 370.085 49.1456C496.594 -5.26678 519.152 -116.359 514.618 -165.103C507.816 -468.622 245.956 -533.237 192.394 -534.088C138.832 -534.938 57.2132 -551.092 -66.915 -389.554Z" fill="url(#paint1_linear_427_285)"/>
<path d="M122.664 -575.765C4.23032 -564.696 -46.5927 -466.002 -57.2 -418.038C-84.8715 -336.408 -40.5972 -312.887 -29.5286 -130.255C-18.46 52.3763 161.404 183.816 363.406 89.7328C565.407 -4.35016 501.763 -300.434 440.886 -358.544C380.009 -416.654 270.707 -589.601 122.664 -575.765Z" fill="url(#paint2_linear_427_285)"/>
<path d="M471.534 -113.238C525.624 -203.698 487.854 -296.258 462.208 -331.23C442.977 -365.788 328.149 -461.791 241.885 -514.25C155.621 -566.708 46.0424 -570.204 -39.0559 -461.791C-124.154 -353.379 -72.862 -257.789 -67.0334 -129.558C-61.2048 -1.32806 39.048 80.273 197.587 98.9247C356.127 117.576 403.922 -0.162292 471.534 -113.238Z" fill="#DFECFF"/>
</g>
<defs>
<linearGradient id="paint0_linear_427_285" x1="-248.757" y1="620.656" x2="954.088" y2="649.957" gradientUnits="userSpaceOnUse">
<stop stop-color="#0F6DFF"/>
<stop offset="1" stop-color="#005CEA"/>
</linearGradient>
<linearGradient id="paint1_linear_427_285" x1="-140.148" y1="-534.909" x2="523.491" y2="-525.994" gradientUnits="userSpaceOnUse">
<stop stop-color="#0F6DFF"/>
<stop offset="1" stop-color="#005CEA"/>
</linearGradient>
<linearGradient id="paint2_linear_427_285" x1="-66.1552" y1="-576.55" x2="398.082" y2="183.702" gradientUnits="userSpaceOnUse">
<stop stop-color="#222738"/>
<stop offset="1" stop-color="#101420"/>
</linearGradient>
<clipPath id="clip0_427_285">
<rect width="375" height="675" fill="white"/>
</clipPath>
</defs>
</svg>
